<svg id="Layer_1" data-name="Layer 1" xmlns="http://www.w3.org/2000/svg" xmlns:xlink="http://www.w3.org/1999/xlink" viewBox="0 0 454.49 138.06">
  <defs>
    <clipPath id="clip-path">
      <polygon points="51.62 107.67 22.26 88.01 32.03 47.63 73.71 26.47 64.13 65.37 96.28 65.35 95.21 69.65 58.84 69.67 67.64 33.88 35.67 50.12 27.09 85.5 52.81 102.72 86.6 85.29 87.98 79.76 46.36 79.78 53.24 51.65 44.09 56.55 38.61 79.04 55.65 91.12 66.11 85.38 75.34 85.38 54.47 96.16 33.79 81.49 40.45 54.13 59.35 44.01 51.63 75.48 93.28 75.45 90.2 87.77 51.62 107.67" style="fill: #262626"/>
    </clipPath>
  </defs>
  <title>main-logo</title>
  <g>
    <polygon points="51.62 107.67 22.26 88.01 32.03 47.63 73.71 26.47 64.13 65.37 96.28 65.35 95.21 69.65 58.84 69.67 67.64 33.88 35.67 50.12 27.09 85.5 52.81 102.72 86.6 85.29 87.98 79.76 46.36 79.78 53.24 51.65 44.09 56.55 38.61 79.04 55.65 91.12 66.11 85.38 75.34 85.38 54.47 96.16 33.79 81.49 40.45 54.13 59.35 44.01 51.63 75.48 93.28 75.45 90.2 87.77 51.62 107.67" style="fill: #262626"/>
    <g style="clip-path: url(#clip-path)">
      <polygon points="89.49 92.51 84.25 107.67 17.5 107.67 34.39 37.92 38.24 26.52 106.02 26.43 89.49 92.51" style="fill: #262626"/>
    </g>
  </g>
  <g>
    <path d="M123.4,39.46h8.15L121.36,87.4h10.8L130.57,95H111.62Z" style="fill: #262626;stroke: #fff;stroke-miterlimit: 10;stroke-width: 1.09414565563202px"/>
    <path d="M133.89,95l8.76-41.3h7.63L141.52,95Zm11.78-55.49h7.63l-1.66,7.62H144Z" style="fill: #262626;stroke: #fff;stroke-miterlimit: 10;stroke-width: 1.09414565563202px"/>
    <path d="M155.18,95h-7.62l8.76-41.3h7.62l-.75,3.47a4.29,4.29,0,0,0,1.05-.83c.53-.38,1.14-.83,1.81-1.36a7.91,7.91,0,0,1,4.16-1.88,4,4,0,0,1,3.85,2.71,10.65,10.65,0,0,1,.22,5.36L167.11,95h-7.62l6.94-32.69c.3-1.59-.53-1.82-1.43-1.82a3.08,3.08,0,0,0-2,1l-.45.45a3.13,3.13,0,0,0-.46.53Z" style="fill: #262626;stroke: #fff;stroke-miterlimit: 10;stroke-width: 1.09414565563202px"/>
    <path d="M192.25,95h-7.62l.52-2.72A18.78,18.78,0,0,1,180.7,95a4.92,4.92,0,0,1-2.26.53,3.8,3.8,0,0,1-3.85-2.79,9,9,0,0,1-.31-5.29l5.59-26.35a11.76,11.76,0,0,1,2.57-5.36,6.41,6.41,0,0,1,5-2.71,6.19,6.19,0,0,1,3.77,1.66c.53.53,1.06,1,1.59,1.66l3.62-16.91H204Zm-.83-32.24a2,2,0,0,0-1.74-2.49,2.93,2.93,0,0,0-2.56,2.49l-4.91,23.18c-.3,1.43.38,2.49,1.51,2.49a3.17,3.17,0,0,0,2.79-2.49Z" style="fill: #262626;stroke: #fff;stroke-miterlimit: 10;stroke-width: 1.09414565563202px"/>
    <path d="M219.28,84.9c-1.13,4-2.8,6.8-6,9a10.05,10.05,0,0,1-6,1.66,7.51,7.51,0,0,1-5.29-1.74,6.38,6.38,0,0,1-2.11-3.7,14.53,14.53,0,0,1-.08-5.43l4.46-20.76c1.13-4,2.79-6.87,6-9.21a9.42,9.42,0,0,1,6-1.66,8.17,8.17,0,0,1,5.36,1.66,6.65,6.65,0,0,1,2.12,3.7,12.39,12.39,0,0,1,.07,5.28Zm-2.72-21a4.7,4.7,0,0,0-.23-3.63,1.89,1.89,0,0,0-1.51-.6A3.09,3.09,0,0,0,212,61.8a4.74,4.74,0,0,0-.68,2.12L206.9,84.68a4.62,4.62,0,0,0,.22,3.55,1.89,1.89,0,0,0,1.51.6,3,3,0,0,0,2.8-2,4.78,4.78,0,0,0,.68-2.11Z" style="fill: #262626;stroke: #fff;stroke-miterlimit: 10;stroke-width: 1.09414565563202px"/>
    <path d="M244.87,61.5a5.69,5.69,0,0,0-2-.3,6.33,6.33,0,0,0-4.15,1.28,5.64,5.64,0,0,0-2.49,3.78l-6,28.69h-7.63l8.76-41.3h7.63l-1,4.6a9.05,9.05,0,0,1,2.41-3,9.83,9.83,0,0,1,6.27-2.19Z" style="fill: #262626;stroke: #fff;stroke-miterlimit: 10;stroke-width: 1.09414565563202px"/>
    <path d="M263.29,80.15l-1,4.75c-1.13,4-2.87,6.8-6.11,9a10.07,10.07,0,0,1-6,1.66c-4.9,0-6.87-2.72-7.47-5.44a14.33,14.33,0,0,1-.07-5.43l4.45-20.76a15.79,15.79,0,0,1,6.19-9.21,9.42,9.42,0,0,1,6-1.66,8.17,8.17,0,0,1,5.36,1.66,6.59,6.59,0,0,1,2.12,3.7,12.23,12.23,0,0,1,.07,5.28l-2.49,12H251.66l-2,9a5.45,5.45,0,0,0,.45,3.55,1.92,1.92,0,0,0,1.51.6,3,3,0,0,0,2.8-2,5.3,5.3,0,0,0,.75-2.11l1-4.53ZM252.87,69.73h5.51l1.29-5.81c.3-1.59.3-2.72-.3-3.63a1.91,1.91,0,0,0-1.51-.6A3.27,3.27,0,0,0,255,61.8a7.73,7.73,0,0,0-.83,2.12Z" style="fill: #262626;stroke: #fff;stroke-miterlimit: 10;stroke-width: 1.09414565563202px"/>
    <path d="M283.45,64.22a11.45,11.45,0,0,0,.37-3.17c-.22-.91-.6-1.66-1.81-1.66a2.8,2.8,0,0,0-2.26,1.66,9.65,9.65,0,0,0-1.13,3.17,5.44,5.44,0,0,0,.83,3.85A22.06,22.06,0,0,0,282,71.62a22.4,22.4,0,0,1,3.63,5.43,12.52,12.52,0,0,1,.75,7.18,15.89,15.89,0,0,1-3.77,7.55,11.15,11.15,0,0,1-8.38,3.77c-4.61,0-6.87-2-7.85-4.68a14.23,14.23,0,0,1-.16-7.93h7.1a11.47,11.47,0,0,0-.23,3.93c.31,1.28.91,2.34,2.5,2.34,2.19,0,3.17-2.57,3.7-5s-1.36-5-3.25-7.33a26,26,0,0,1-3.78-5.36,11.49,11.49,0,0,1-.75-7.32,17,17,0,0,1,3.47-7.4,10.88,10.88,0,0,1,8.15-3.77c4.54-.08,6.65,1.58,7.48,3.77s.45,5.06-.08,7.4Z" style="fill: #262626;stroke: #fff;stroke-miterlimit: 10;stroke-width: 1.09414565563202px"/>
    <path d="M320.89,59.39l1.82-8.53a4.65,4.65,0,0,0-.38-3.48,1.89,1.89,0,0,0-1.51-.6,3.36,3.36,0,0,0-2.87,2,8,8,0,0,0-.68,2l-7.1,33.37a4.1,4.1,0,0,0,.38,3.47,1.7,1.7,0,0,0,1.43.6,3.11,3.11,0,0,0,2.87-2,9.75,9.75,0,0,0,.76-2l2.11-10h-3.24l1.43-6.87h11.4L321.5,95h-4.83l-.46-2.65a10.2,10.2,0,0,1-7,3.25c-2.64,0-4.3-.68-5.43-1.89a7.11,7.11,0,0,1-2-4.07,13.21,13.21,0,0,1,.38-6l6.95-32.69a18.09,18.09,0,0,1,2.56-6,16.22,16.22,0,0,1,4.08-4.15,12.2,12.2,0,0,1,6.72-1.89,8.59,8.59,0,0,1,5.89,1.89,7.46,7.46,0,0,1,2.34,4.15,12.92,12.92,0,0,1,.15,6l-1.81,8.53Z" style="fill: #262626;stroke: #fff;stroke-miterlimit: 10;stroke-width: 1.09414565563202px"/>
    <path d="M349.81,61.5a5.75,5.75,0,0,0-2-.3,6.33,6.33,0,0,0-4.15,1.28,5.69,5.69,0,0,0-2.5,3.78l-6,28.69h-7.63l8.76-41.3h7.62l-1,4.6a9.13,9.13,0,0,1,2.42-3,9.8,9.8,0,0,1,6.26-2.19Z" style="fill: #262626;stroke: #fff;stroke-miterlimit: 10;stroke-width: 1.09414565563202px"/>
    <path d="M346,95l8.76-41.3h7.62L353.66,95Zm11.78-55.49h7.62l-1.66,7.62h-7.62Z" style="fill: #262626;stroke: #fff;stroke-miterlimit: 10;stroke-width: 1.09414565563202px"/>
    <path d="M361.28,95l7.25-34.43h-3.85l1.51-6.87H370l.23-1.13c.52-2.12,1.13-5.51,2.86-8.31s4.23-5.06,8.76-5.06a7.3,7.3,0,0,1,2.57.31l.83.22-1.36,6.57a.49.49,0,0,0-.3-.07.55.55,0,0,1-.38-.08,10.69,10.69,0,0,0-1.59-.15c-1.28,0-2.11,1.13-2.71,2.57a13,13,0,0,0-.68,2.26,9.12,9.12,0,0,1-.23,1c-.07.3-.07.61-.15.83l-.23,1.06h3.85L380,60.52h-3.85L368.91,95Z" style="fill: #262626;stroke: #fff;stroke-miterlimit: 10;stroke-width: 1.09414565563202px"/>
    <path d="M378.8,95,386,60.52h-3.85l1.51-6.87h3.85l.23-1.13c.53-2.12,1.13-5.51,2.87-8.31s4.23-5.06,8.76-5.06a7.2,7.2,0,0,1,2.56.31l.83.22-1.35,6.57a.51.51,0,0,0-.31-.07c-.15,0-.3,0-.37-.08a10.69,10.69,0,0,0-1.59-.15c-1.28,0-2.11,1.13-2.72,2.57a13,13,0,0,0-.68,2.26,9.47,9.47,0,0,1-.22,1c-.08.3-.08.61-.16.83l-.22,1.06H399l-1.51,6.87h-3.85L386.42,95Z" style="fill: #262626;stroke: #fff;stroke-miterlimit: 10;stroke-width: 1.09414565563202px"/>
    <path d="M394.73,95l8.75-41.3h7.63L402.35,95ZM406.5,39.46h7.63l-1.66,7.62h-7.63Z" style="fill: #262626;stroke: #fff;stroke-miterlimit: 10;stroke-width: 1.09414565563202px"/>
    <path d="M416,95h-7.63l8.76-41.3h7.62L424,57.12a4.1,4.1,0,0,0,1.05-.83c.53-.38,1.14-.83,1.82-1.36A7.89,7.89,0,0,1,431,53.05a4,4,0,0,1,3.85,2.71,10.77,10.77,0,0,1,.23,5.36L427.94,95h-7.62l6.94-32.69c.31-1.59-.52-1.82-1.43-1.82a3.08,3.08,0,0,0-2,1l-.45.45a3.65,3.65,0,0,0-.46.53Z" style="fill: #262626;stroke: #fff;stroke-miterlimit: 10;stroke-width: 1.09414565563202px"/>
  </g>
</svg>
