<svg id="Layer_1" data-name="Layer 1" xmlns="http://www.w3.org/2000/svg" xmlns:xlink="http://www.w3.org/1999/xlink" viewBox="0 0 63.48 71.58">
  <defs>
    <clipPath id="clip-path">
      <polygon points="32.01 68.71 3.52 52.62 3.52 19.59 33.76 2.31 33.76 34.12 60.48 34.12 60.48 37.63 30.24 37.63 30.24 8.37 7.03 21.63 7.03 50.57 31.99 64.66 56.57 50.42 56.57 45.89 21.92 45.89 21.92 22.89 15.32 26.89 15.32 45.29 31.97 55.17 39.51 50.48 47.2 50.48 32.02 59.29 11.8 47.29 11.8 24.91 25.43 16.64 25.43 42.38 60.08 42.38 60.08 52.44 32.01 68.71" style="fill: #262626"/>
    </clipPath>
  </defs>
  <title>sub-logo</title>
  <g>
    <polygon points="32.01 68.71 3.52 52.62 3.52 19.59 33.76 2.31 33.76 34.12 60.48 34.12 60.48 37.63 30.24 37.63 30.24 8.37 7.03 21.63 7.03 50.57 31.99 64.66 56.57 50.42 56.57 45.89 21.92 45.89 21.92 22.89 15.32 26.89 15.32 45.29 31.97 55.17 39.51 50.48 47.2 50.48 32.02 59.29 11.8 47.29 11.8 24.91 25.43 16.64 25.43 42.38 60.08 42.38 60.08 52.44 32.01 68.71" style="fill: #262626"/>
    <g style="clip-path: url(#clip-path)">
      <polygon points="60.48 56.32 59.27 68.71 3.52 68.71 3.52 11.64 4.42 2.31 60.48 2.31 60.48 56.32" style="fill: #262626"/>
    </g>
  </g>
</svg>
